<svg width="16" height="16" viewBox="0 0 16 16" fill="none" xmlns="http://www.w3.org/2000/svg">
<path d="M3.05561 11.5473C2.36877 10.8181 2 9.99988 2 8.67341C2 6.34045 3.63767 4.24899 6.02039 3.21533L6.61552 4.13374C4.39203 5.33681 3.95745 6.89721 3.78376 7.88121C4.14175 7.69608 4.61039 7.63094 5.06981 7.67354C6.27272 7.78508 7.2208 8.77255 7.2208 9.99988C7.2208 11.2885 6.17611 12.3332 4.88744 12.3332C4.17207 12.3332 3.48797 12.0062 3.05561 11.5473ZM9.72227 11.5473C9.03547 10.8181 8.66667 9.99988 8.66667 8.67341C8.66667 6.34045 10.3043 4.24899 12.6871 3.21533L13.2822 4.13374C11.0587 5.33681 10.6241 6.89721 10.4504 7.88121C10.8084 7.69608 11.2771 7.63094 11.7365 7.67354C12.9394 7.78508 13.8875 8.77255 13.8875 9.99988C13.8875 11.2885 12.8428 12.3332 11.5541 12.3332C10.8387 12.3332 10.1547 12.0062 9.72227 11.5473Z" fill="#023E8A" fill-opacity="1"/>
</svg>
